<?xml version="1.0" standalone="no"?>
<!DOCTYPE svg PUBLIC "-//W3C//DTD SVG 20010904//EN"
 "http://www.w3.org/TR/2001/REC-SVG-20010904/DTD/svg10.dtd">
<svg version="1.0" xmlns="http://www.w3.org/2000/svg"
 width="500.000000pt" height="500.000000pt" viewBox="0 0 500.000000 500.000000"
 preserveAspectRatio="xMidYMid meet">
<metadata>
Created by potrace 1.16, written by Peter Selinger 2001-2019
</metadata>
<g transform="translate(0.000000,500.000000) scale(0.100000,-0.100000)"
fill="#000000" stroke="none">
<path d="M1497 3114 c-4 -4 -7 -56 -7 -115 l0 -108 -35 15 c-68 28 -137 10
-181 -49 -18 -24 -19 -24 -29 -4 -28 55 -123 84 -172 52 -18 -12 -28 -14 -31
-7 -2 7 -26 12 -58 12 l-54 0 0 -150 0 -150 55 0 55 0 0 99 c0 92 2 101 22
115 29 21 51 20 71 -2 13 -15 17 -39 17 -115 l0 -97 55 0 55 0 0 36 0 37 22
-28 c42 -54 119 -69 176 -35 26 16 32 17 32 5 0 -11 13 -15 55 -15 l55 0 0 41
0 42 22 -28 c26 -33 91 -64 136 -65 40 0 99 24 129 52 l23 21 23 -21 c29 -28
89 -52 127 -52 38 0 98 24 127 52 l23 21 0 -106 0 -107 50 0 50 0 0 85 c0 47
2 85 4 85 2 0 21 -7 42 -16 47 -20 102 -14 142 15 82 58 82 204 1 264 -41 30
-111 34 -154 9 -28 -17 -35 -18 -35 -7 0 11 -13 15 -50 15 l-50 0 0 -41 0 -41
-27 33 c-66 78 -190 78 -256 0 l-22 -27 -24 29 c-64 77 -189 75 -256 -5 l-24
-29 -3 143 -3 143 -45 3 c-25 2 -49 0 -53 -4z m-29 -300 c31 -21 31 -87 0
-108 -48 -34 -111 -4 -111 52 0 62 60 92 111 56z m962 -4 c43 -43 11 -120 -49
-120 -32 0 -71 39 -71 70 0 10 9 29 21 44 25 32 70 35 99 6z"/>
<path d="M344 3081 c-52 -32 -74 -68 -74 -122 0 -62 31 -99 120 -144 71 -36
86 -54 70 -85 -18 -33 -65 -35 -127 -5 -60 30 -57 31 -90 -29 -15 -28 -14 -31
7 -48 26 -21 112 -48 154 -48 54 0 109 21 142 54 l33 33 21 -30 c41 -55 120
-72 178 -37 26 16 32 17 32 5 0 -11 13 -15 55 -15 l55 0 0 150 0 150 -55 0
c-30 0 -55 -4 -55 -9 0 -6 -16 -3 -35 5 -41 17 -88 18 -118 3 -32 -17 -77 -61
-77 -76 0 -19 -14 -16 -36 8 -10 12 -49 36 -85 54 -80 41 -94 56 -79 84 13 25
64 28 115 6 l35 -14 21 41 c17 34 18 43 7 53 -40 38 -163 47 -214 16z m444
-267 c16 -11 22 -25 22 -54 0 -29 -6 -43 -22 -54 -48 -34 -111 -4 -111 52 0
62 60 92 111 56z"/>
<path d="M2660 2850 l0 -240 55 0 54 0 3 101 3 101 85 -101 85 -100 78 0 79
-1 -111 124 c-61 69 -111 128 -111 131 0 3 37 50 83 103 46 53 87 103 91 110
5 9 -8 12 -57 12 l-64 0 -79 -94 -79 -94 -3 94 -3 94 -54 0 -55 0 0 -240z"/>
<path d="M3668 2968 l-3 -53 -92 0 c-77 0 -96 -3 -120 -21 -65 -49 -53 -110
32 -156 28 -15 50 -33 50 -40 0 -19 -39 -21 -73 -4 -28 15 -31 14 -45 -7 -15
-20 -16 -13 -16 101 l-1 122 -55 0 c-30 0 -55 -4 -55 -9 0 -6 -17 -3 -37 6
-104 43 -203 -29 -203 -148 0 -122 110 -194 213 -139 31 17 37 17 37 5 0 -11
12 -15 50 -15 28 0 50 4 50 9 0 5 22 2 48 -6 180 -58 287 121 111 186 -77 29
-46 58 41 38 14 -3 35 -6 48 -6 21 -1 22 -5 22 -85 0 -74 3 -88 23 -111 40
-46 156 -42 144 5 -5 19 -3 18 24 -4 48 -41 160 -47 228 -11 41 21 54 59 59
178 l4 107 -56 0 -56 0 0 -93 c0 -110 -10 -130 -60 -125 -47 4 -60 33 -60 136
l0 82 -75 0 -75 0 0 55 0 55 -49 0 -50 0 -3 -52z m-389 -164 c27 -35 26 -59
-4 -89 -47 -48 -115 -22 -115 45 0 29 6 43 22 54 34 24 73 20 97 -10z"/>
<path d="M4292 2895 c-30 -26 -32 -26 -32 -6 0 19 -6 21 -50 21 l-50 0 0 -150
0 -150 50 0 50 0 0 90 c0 111 14 132 85 128 l45 -3 0 -107 0 -108 55 0 55 0 0
150 0 150 -37 0 c-21 0 -61 3 -88 6 -45 6 -54 3 -83 -21z"/>
</g>
</svg>
