<?xml version="1.0" standalone="no"?>
<!DOCTYPE svg PUBLIC "-//W3C//DTD SVG 20010904//EN"
 "http://www.w3.org/TR/2001/REC-SVG-20010904/DTD/svg10.dtd">
<svg version="1.0" xmlns="http://www.w3.org/2000/svg"
 width="1920.000000pt" height="1080.000000pt" viewBox="0 0 1920.000000 1080.000000"
 preserveAspectRatio="xMidYMid meet">
<metadata>
Created by potrace 1.16, written by Peter Selinger 2001-2019
</metadata>
<g transform="translate(0.000000,1080.000000) scale(0.100000,-0.100000)"
fill="#000000" stroke="none">
<path d="M5585 9276 l-25 -25 0 -1015 c0 -648 -4 -1024 -10 -1041 -9 -24 -13
-26 -67 -23 -55 3 -59 5 -75 38 -56 112 -184 233 -261 244 -65 10 -113 -14
-205 -106 -82 -81 -167 -248 -225 -443 -15 -49 -39 -127 -53 -172 l-25 -83
-54 0 c-60 0 -58 -4 -70 115 -19 185 -105 421 -185 510 -15 17 -32 39 -37 49
-25 47 -189 142 -229 132 -53 -14 -158 -136 -219 -256 l-25 -50 -60 0 c-69 0
-67 -3 -72 119 -5 106 -17 114 -164 109 -75 -2 -116 -7 -127 -17 -16 -12 -17
-120 -17 -1347 0 -1198 2 -1334 16 -1348 12 -13 40 -16 134 -16 126 0 144 6
155 53 3 12 6 411 8 887 l2 865 27 75 c41 119 74 182 117 228 l40 42 96 0
c102 0 97 2 149 -65 24 -31 51 -97 83 -200 17 -56 18 -122 23 -958 5 -875 6
-899 24 -913 14 -10 51 -14 131 -14 167 0 155 -23 156 293 1 144 4 276 8 292
6 29 8 30 66 30 l60 0 13 -45 c47 -166 72 -234 134 -360 58 -116 105 -174 198
-241 68 -49 109 -58 148 -33 132 85 159 116 227 252 l37 72 58 0 c44 0 59 -4
64 -16 3 -9 6 -58 6 -110 0 -131 4 -134 153 -134 82 0 119 4 133 14 18 14 19
33 24 378 l5 363 64 0 64 0 22 -90 c46 -185 110 -344 194 -483 30 -49 140
-182 151 -182 4 0 32 -17 61 -37 85 -58 122 -57 244 7 55 29 104 60 109 68 5
9 28 34 50 57 23 22 50 56 61 75 47 80 105 198 119 240 8 25 26 75 39 113 13
37 20 67 16 67 -5 0 -9 5 -9 11 0 7 -19 31 -42 55 -70 71 -107 114 -125 145
-10 16 -20 29 -23 29 -4 0 -15 -19 -27 -42 -55 -114 -61 -123 -120 -158 -55
-33 -63 -35 -148 -35 l-90 0 -57 43 c-32 23 -58 46 -58 51 0 4 -11 24 -23 43
-51 74 -71 169 -75 350 -2 110 0 173 8 187 11 21 15 21 403 21 216 0 398 -4
406 -9 9 -6 17 -42 23 -102 5 -52 15 -137 23 -189 21 -137 35 -266 35 -332 0
-51 2 -58 19 -58 24 0 28 -7 46 -67 27 -97 109 -280 168 -375 36 -58 137 -159
198 -197 87 -55 124 -54 244 9 55 29 104 60 109 68 5 9 28 34 50 57 51 52 73
87 126 194 41 83 73 164 90 229 4 19 11 36 13 39 9 8 -17 59 -51 99 -18 21
-52 62 -77 91 -24 28 -48 60 -53 70 -13 21 -9 26 -57 -70 -35 -70 -46 -82
-100 -115 -54 -33 -68 -37 -140 -40 -79 -4 -81 -3 -142 37 -37 24 -69 53 -79
73 -9 18 -22 40 -29 48 -7 8 -23 49 -36 90 -19 62 -23 103 -27 235 -2 99 0
171 7 188 l11 27 440 0 440 0 10 -25 c6 -15 10 -526 10 -1323 0 -713 4 -1310
8 -1327 l8 -30 131 -3 c112 -2 132 0 144 14 12 14 15 151 19 808 l5 791 49 3
c74 5 92 -3 109 -45 8 -21 25 -47 37 -58 12 -11 28 -32 36 -47 8 -15 29 -35
47 -44 17 -10 49 -31 69 -47 54 -43 112 -43 164 -1 22 17 54 38 72 48 17 9 32
21 32 26 0 6 15 27 33 47 69 79 148 250 201 438 79 280 98 431 103 795 5 298
2 346 -31 585 -38 276 -154 613 -255 743 -58 74 -147 149 -193 163 -47 14
-103 2 -135 -30 -15 -15 -45 -39 -65 -54 -21 -16 -38 -32 -38 -37 0 -6 -16
-30 -35 -56 -19 -25 -35 -50 -35 -56 0 -6 -14 -32 -32 -59 -31 -48 -32 -49
-84 -49 -38 0 -53 4 -58 16 -3 9 -6 60 -6 114 0 141 -1 142 -155 138 -116 -3
-120 -4 -132 -28 -10 -19 -13 -112 -13 -370 0 -190 -3 -355 -6 -367 -6 -20
-13 -23 -59 -23 -61 0 -59 -2 -74 100 -19 138 -119 427 -171 493 -9 12 -20 31
-24 42 -9 29 -124 144 -186 187 -94 65 -169 62 -270 -11 -78 -57 -117 -101
-184 -208 -68 -108 -171 -372 -201 -511 l-7 -33 -56 3 -57 3 -22 90 c-49 195
-98 320 -183 474 -25 44 -126 148 -183 188 -91 63 -187 68 -250 14 -18 -16
-47 -37 -64 -48 -58 -35 -159 -184 -220 -323 -73 -168 -89 -215 -130 -390 l-9
-35 -64 0 -65 0 -5 1307 -5 1307 -21 28 c-21 27 -24 28 -128 31 -102 3 -107 2
-131 -22z m1079 -2370 c40 -16 77 -78 112 -185 20 -62 24 -93 24 -198 0 -68
-5 -133 -10 -144 -10 -18 -24 -19 -249 -19 -194 0 -241 3 -250 14 -19 22 -10
266 13 345 23 83 78 169 119 186 43 19 197 19 241 1z m1170 0 c40 -17 78 -79
112 -185 20 -62 24 -94 24 -205 0 -89 -4 -136 -12 -144 -9 -9 -78 -12 -248
-12 -170 0 -239 3 -248 12 -22 22 -15 238 10 332 27 98 77 182 121 201 43 19
197 19 241 1z m-2426 -233 c88 -95 136 -249 153 -494 21 -294 -7 -543 -80
-712 -31 -71 -97 -145 -140 -157 -47 -13 -146 -13 -193 0 -42 12 -104 79 -137
150 -81 175 -113 515 -75 810 25 192 71 320 147 403 l44 47 118 0 119 0 44
-47z m3707 35 c14 -6 25 -14 25 -17 0 -4 15 -24 32 -46 39 -46 70 -119 100
-235 21 -79 23 -105 23 -385 0 -285 -1 -305 -24 -395 -41 -161 -117 -292 -184
-317 -40 -15 -150 -16 -198 -3 -61 17 -122 102 -171 240 -59 166 -78 542 -38
768 21 120 59 240 91 288 10 16 29 44 41 62 11 19 30 38 42 42 32 13 231 12
261 -2z"/>
<path d="M1270 9154 c-45 -14 -140 -97 -201 -176 -68 -86 -175 -334 -218 -503
-81 -319 -92 -753 -27 -1055 52 -244 161 -504 259 -619 15 -18 27 -37 27 -41
0 -5 15 -25 33 -44 17 -20 51 -57 74 -83 23 -27 59 -67 80 -90 205 -228 263
-366 263 -627 0 -155 -21 -279 -60 -356 -23 -46 -40 -63 -92 -95 -62 -39 -65
-40 -158 -40 -91 0 -97 1 -142 33 -26 17 -51 32 -56 32 -7 0 -56 54 -172 191
-16 20 -30 39 -30 43 0 3 -13 24 -28 45 l-28 39 -23 -92 c-12 -50 -31 -127
-43 -171 -11 -44 -26 -105 -34 -135 -73 -291 -70 -259 -34 -327 57 -108 78
-137 170 -243 28 -33 41 -46 129 -133 21 -21 65 -48 100 -62 34 -13 76 -33 94
-44 68 -41 180 -35 255 14 20 13 49 27 64 30 39 10 238 215 238 246 0 5 9 22
20 37 38 53 96 217 129 362 l16 75 57 3 57 3 26 -88 c43 -146 78 -257 87 -273
4 -8 20 -46 36 -85 51 -122 144 -255 201 -285 20 -11 49 -30 64 -42 34 -27 94
-30 128 -5 113 81 154 129 214 247 l35 70 55 0 c50 0 56 -2 65 -26 6 -14 10
-65 10 -114 0 -117 4 -120 156 -120 95 0 113 3 127 18 16 17 17 125 17 1345
l0 1327 -21 21 c-19 19 -30 20 -135 17 -138 -4 -146 -9 -151 -100 -7 -111 -5
-108 -74 -108 -60 0 -60 0 -76 37 -17 42 -50 87 -104 141 -100 101 -170 129
-233 95 -59 -31 -145 -102 -160 -131 -8 -16 -22 -34 -30 -42 -23 -18 -108
-199 -145 -307 -37 -110 -76 -259 -85 -327 -10 -79 -26 -96 -91 -96 -61 0 -61
-1 -92 93 -22 66 -95 219 -144 303 -69 117 -129 190 -344 417 -16 18 -44 52
-62 77 -142 200 -163 260 -163 468 0 153 22 271 64 342 48 82 74 92 221 88 74
-3 130 -9 145 -17 32 -18 100 -74 155 -130 43 -43 44 -44 49 -20 14 66 39 190
47 234 10 51 22 108 60 275 l22 96 -23 44 c-23 46 -58 93 -97 133 -59 60 -123
117 -131 117 -5 0 -31 18 -58 40 -36 29 -65 43 -115 55 -82 18 -110 18 -169
-1z m1473 -2466 c53 -67 65 -86 89 -143 40 -95 59 -169 70 -278 12 -115 4
-543 -10 -597 -6 -19 -17 -61 -26 -93 -35 -133 -112 -249 -176 -267 -45 -13
-155 -13 -200 0 -63 17 -120 102 -171 253 -65 193 -64 703 1 896 41 123 99
223 143 249 15 8 59 11 140 10 116 -3 119 -4 140 -30z"/>
<path d="M17000 9077 c-101 -91 -164 -355 -140 -579 18 -166 82 -336 142 -379
30 -22 31 -22 65 -4 32 18 70 81 112 190 15 38 51 249 51 296 0 101 -50 310
-97 403 -15 30 -82 106 -93 106 -3 -1 -21 -15 -40 -33z"/>
<path d="M10130 9074 c-14 -36 -14 -4379 0 -4405 10 -17 23 -19 155 -19 132 0
145 2 155 19 7 13 10 318 10 920 0 494 3 906 6 915 5 12 20 16 63 16 l57 0 15
-47 c9 -27 37 -106 63 -178 26 -71 119 -330 207 -575 88 -245 165 -456 171
-470 6 -14 17 -43 24 -65 7 -22 25 -71 39 -110 14 -38 32 -88 40 -110 51 -149
98 -273 110 -292 15 -23 18 -23 230 -23 125 0 216 4 220 10 3 5 -2 26 -11 47
-9 21 -24 61 -34 88 -18 52 -265 722 -307 835 -13 36 -28 79 -33 95 -5 17 -14
39 -20 50 -8 16 -203 546 -291 790 -10 28 -30 82 -44 120 -78 205 -87 245 -82
335 4 60 15 110 37 170 17 47 37 103 45 125 7 22 32 92 55 155 38 105 112 316
145 415 7 22 32 92 55 155 23 63 66 185 96 270 30 85 65 187 79 225 15 39 32
88 40 110 21 64 132 377 144 409 9 23 9 31 -1 38 -7 4 -86 8 -175 8 -196 0
-196 1 -242 -135 -17 -49 -51 -148 -76 -220 -26 -71 -61 -175 -80 -230 -19
-55 -53 -152 -76 -215 -22 -63 -47 -133 -54 -155 -7 -22 -43 -125 -80 -230
-37 -104 -73 -208 -81 -230 -7 -22 -40 -116 -72 -210 l-59 -170 -55 -3 c-51
-3 -56 -1 -62 20 -3 13 -6 401 -6 863 0 551 -4 853 -11 878 l-10 37 -145 0
-144 0 -10 -26z"/>
<path d="M14063 8403 c-17 -25 -18 -68 -23 -513 -3 -267 -8 -490 -12 -496 -4
-6 -36 -14 -70 -18 -35 -3 -89 -9 -120 -12 -78 -9 -118 1 -177 41 -86 60 -188
70 -252 27 -14 -9 -51 -34 -82 -55 -32 -21 -57 -42 -57 -47 0 -5 -13 -24 -29
-42 -66 -76 -142 -273 -161 -418 -21 -157 -30 -285 -24 -335 27 -247 53 -343
131 -490 56 -105 111 -174 235 -293 111 -107 128 -148 128 -307 0 -91 -4 -125
-21 -170 -25 -68 -40 -75 -151 -75 -90 0 -137 17 -158 55 -7 14 -24 32 -37 40
-13 9 -35 34 -50 58 -26 41 -26 41 -34 17 -13 -47 -41 -165 -53 -225 l-11 -60
-60 0 c-55 0 -60 2 -66 25 -4 14 -7 523 -8 1131 -1 1015 -2 1108 -18 1120 -11
10 -52 15 -127 17 -142 5 -157 -4 -163 -94 -7 -107 -5 -104 -77 -104 -62 0
-64 1 -77 33 -35 88 -179 223 -255 239 -36 8 -50 6 -86 -11 -57 -28 -128 -86
-151 -125 -11 -17 -27 -40 -37 -51 -63 -73 -160 -325 -209 -545 -62 -280 -85
-638 -63 -975 19 -294 87 -601 177 -800 8 -16 21 -46 30 -65 23 -52 69 -130
81 -138 5 -4 20 -22 33 -40 12 -18 57 -55 99 -83 90 -59 116 -60 189 -7 79 57
132 119 177 208 42 81 42 81 110 78 l61 -3 5 -106 c3 -69 10 -112 19 -123 11
-13 34 -16 132 -16 141 0 149 5 149 85 0 30 4 65 10 79 9 24 14 26 69 26 55 0
59 -2 71 -29 6 -16 29 -45 50 -65 21 -19 44 -44 52 -54 7 -11 36 -31 63 -46
28 -15 66 -37 85 -49 27 -17 49 -22 95 -21 52 0 72 7 145 47 171 93 258 243
313 542 30 168 31 441 0 600 -32 163 -86 301 -157 398 -40 55 -151 165 -183
181 -17 8 -40 26 -50 39 -10 12 -31 32 -48 44 -47 33 -75 125 -75 243 0 83 3
101 26 147 31 61 56 73 150 73 83 0 103 -8 226 -92 16 -11 45 -18 72 -18 27 0
48 -5 53 -14 14 -22 50 -36 97 -36 80 0 76 25 76 -549 0 -914 27 -1169 147
-1417 45 -92 64 -113 165 -178 36 -23 83 -16 131 22 19 15 49 35 66 44 57 31
71 70 71 191 0 65 -4 107 -10 107 -6 0 -10 35 -10 85 l0 85 55 0 55 0 0 -41
c0 -28 6 -46 19 -57 11 -10 31 -47 46 -84 60 -154 139 -246 273 -316 86 -45
89 -46 182 -46 94 0 96 1 183 47 127 66 207 156 271 306 51 118 101 351 111
521 3 58 13 172 21 254 11 114 14 321 14 883 l0 735 -30 30 -30 30 -116 -4
c-98 -2 -118 -6 -129 -21 -11 -15 -14 -180 -17 -865 -5 -832 -5 -849 -27 -952
-12 -58 -35 -132 -51 -165 -38 -80 -85 -105 -196 -105 -111 0 -165 26 -197 93
-14 29 -32 75 -41 102 -39 123 -55 483 -56 1282 0 554 -1 603 -17 619 -16 15
-41 16 -281 12 -221 -5 -265 -3 -278 9 -12 12 -14 89 -14 501 0 372 -3 493
-13 512 -12 24 -16 25 -134 28 l-122 3 -18 -28z m564 -1685 c16 -20 25 -1282
10 -1300 -7 -8 -29 -26 -49 -41 -30 -22 -48 -27 -93 -27 -31 0 -65 4 -75 10
-10 5 -29 36 -42 67 l-23 58 -3 602 c-2 417 0 609 8 623 10 18 21 20 134 20
87 0 126 -4 133 -12z m-2230 -4 c42 -11 117 -136 156 -259 68 -213 66 -689 -3
-896 -25 -73 -60 -147 -82 -174 -9 -11 -25 -30 -35 -43 -21 -27 -75 -41 -158
-42 -91 0 -125 13 -171 67 -50 59 -77 118 -112 248 -26 98 -27 105 -26 400 0
292 1 303 26 395 15 52 36 117 48 144 27 60 84 137 113 153 23 13 203 18 244
7z"/>
<path d="M16659 7452 c-27 -12 -129 -106 -143 -132 -7 -14 -29 -55 -49 -91
-19 -37 -45 -94 -57 -128 l-23 -61 -58 0 c-33 0 -60 1 -60 3 -1 1 -4 73 -8
159 -3 86 -10 160 -14 165 -5 4 -64 9 -132 11 l-124 4 -21 -34 c-20 -33 -20
-44 -20 -1330 0 -891 3 -1305 11 -1325 5 -15 16 -31 22 -35 21 -14 255 -9 264
5 4 6 10 379 13 827 5 740 7 822 23 890 38 157 60 212 110 272 l49 58 118 0
c102 0 121 -3 143 -20 l25 -20 9 38 9 37 59 0 c55 0 60 -2 66 -25 4 -14 7
-478 8 -1032 l1 -1007 22 -15 c17 -12 49 -16 135 -16 100 0 115 2 133 20 20
20 20 33 20 1340 l0 1321 -25 24 c-24 25 -27 25 -194 25 l-169 0 -42 35 c-23
19 -46 35 -50 35 -5 0 -14 2 -22 4 -7 3 -20 2 -29 -2z"/>
<path d="M17942 5688 c-57 -35 -111 -156 -147 -330 -33 -152 -33 -263 -1 -417
30 -143 78 -255 135 -316 23 -25 45 -45 49 -45 18 0 101 100 125 150 66 142
95 339 77 534 -18 190 -93 382 -166 425 -19 12 -36 21 -37 20 -1 0 -17 -10
-35 -21z"/>
</g>
</svg>
