<?xml version="1.0" standalone="no"?>
<!DOCTYPE svg PUBLIC "-//W3C//DTD SVG 20010904//EN"
 "http://www.w3.org/TR/2001/REC-SVG-20010904/DTD/svg10.dtd">
<svg version="1.0" xmlns="http://www.w3.org/2000/svg"
 width="700.000000pt" height="700.000000pt" viewBox="0 0 700.000000 700.000000"
 preserveAspectRatio="xMidYMid meet">
<metadata>
Created by potrace 1.16, written by Peter Selinger 2001-2019
</metadata>
<g transform="translate(0.000000,700.000000) scale(0.100000,-0.100000)"
fill="#000000" stroke="none">
<path d="M2066 5994 c-3 -9 -6 -317 -6 -685 l0 -669 -58 0 -58 0 -18 53 c-10
28 -27 63 -38 77 l-20 24 -19 -24 c-40 -53 -94 -247 -114 -412 l-7 -58 -54 0
c-37 0 -54 4 -54 13 0 43 -32 261 -45 303 -20 69 -52 139 -68 153 -20 16 -41
-12 -63 -87 l-18 -63 -56 3 -55 3 -3 63 c-2 46 -7 65 -18 69 -9 3 -20 0 -25
-8 -5 -8 -9 -386 -9 -855 0 -725 2 -843 15 -854 8 -6 19 -9 25 -5 7 4 10 184
10 553 0 592 7 701 53 792 l22 45 65 0 c62 0 65 -1 79 -30 36 -74 40 -148 41
-737 0 -568 4 -635 33 -626 9 3 14 57 18 199 4 107 7 195 8 197 0 1 25 2 54 2
l53 0 13 -77 c36 -215 92 -361 128 -332 17 15 50 90 59 134 l6 35 59 0 59 0 0
-74 c0 -77 10 -97 35 -76 12 10 15 54 15 246 l0 234 54 0 c61 0 57 5 72 -105
20 -156 86 -357 130 -397 18 -15 21 -15 45 5 35 29 75 119 105 237 27 107 29
137 10 162 -12 16 -15 15 -41 -12 -26 -27 -35 -30 -90 -30 -56 0 -63 2 -83 30
-12 16 -29 55 -37 87 -18 66 -31 282 -21 336 l7 37 174 0 c108 0 176 -4 180
-10 4 -6 13 -104 21 -218 8 -114 19 -220 24 -237 5 -16 20 -79 35 -140 28
-118 63 -206 97 -243 l22 -22 24 22 c45 42 80 128 112 271 19 80 19 90 5 118
l-16 30 -26 -31 c-24 -29 -29 -31 -91 -28 -62 3 -68 5 -89 36 -35 53 -48 133
-48 297 l0 150 195 0 195 0 3 -873 c2 -788 4 -873 18 -879 9 -3 20 0 25 8 5 8
9 245 9 527 l0 512 55 0 c44 0 57 -4 62 -17 16 -46 46 -108 59 -121 22 -21 48
17 82 123 103 313 122 922 42 1345 -28 147 -58 237 -95 284 -15 20 -15 20 -30
0 -8 -10 -27 -54 -42 -96 l-28 -78 -51 0 -52 0 -4 74 c-4 80 -8 92 -33 83 -13
-6 -15 -40 -15 -252 l0 -245 -53 0 -54 0 -13 103 c-23 185 -73 348 -129 417
-20 25 -20 25 -36 5 -51 -65 -86 -166 -123 -357 l-26 -138 -52 0 -51 0 -7 63
c-22 189 -76 365 -131 425 l-22 23 -24 -33 c-14 -18 -35 -56 -47 -85 -24 -56
-66 -227 -77 -308 -14 -111 -10 -105 -71 -105 l-54 0 0 844 c0 525 -4 854 -10
870 -11 29 -25 34 -34 10z m401 -1506 c26 -41 35 -96 40 -230 l5 -148 -127 0
-127 0 5 148 c4 136 15 198 40 230 6 7 36 12 83 12 47 0 76 -4 81 -12z m447
-48 c15 -43 19 -85 20 -190 l1 -135 -119 -3 c-89 -2 -121 1 -128 10 -23 38 4
304 37 354 15 23 21 25 93 22 l77 -3 19 -55z m-935 -70 c51 -27 81 -202 81
-475 0 -225 -17 -365 -53 -430 l-22 -40 -75 0 -75 0 -18 38 c-40 86 -50 170
-50 432 0 202 3 265 17 330 18 80 40 134 60 147 16 11 114 10 135 -2z m1367 2
c17 -11 40 -61 55 -122 10 -41 14 -131 14 -345 0 -302 -5 -347 -47 -442 l-19
-43 -75 0 -75 0 -18 43 c-28 65 -40 134 -52 297 -20 273 22 598 80 613 28 8
125 7 137 -1z"/>
<path d="M467 5883 c-92 -147 -136 -359 -144 -704 -10 -393 32 -614 167 -895
93 -193 101 -225 107 -404 6 -188 -6 -289 -44 -342 -26 -38 -26 -38 -95 -38
-78 0 -89 8 -134 93 l-21 41 -13 -105 c-7 -57 -16 -124 -20 -148 -9 -50 4 -97
65 -226 24 -53 52 -94 83 -123 l45 -43 33 32 c65 63 119 209 146 395 l12 84
52 0 51 0 18 -107 c29 -181 75 -335 110 -369 10 -11 15 -10 28 4 19 22 43 77
57 130 l11 42 54 0 55 0 0 -74 c0 -55 4 -77 16 -87 13 -10 17 -10 25 2 5 8 8
365 6 864 -2 843 -2 850 -22 850 -18 0 -20 -8 -23 -62 l-3 -63 -55 0 c-35 0
-56 4 -58 13 -17 54 -40 106 -57 126 -19 23 -20 23 -34 5 -39 -50 -74 -162
-104 -338 -12 -65 -21 -133 -21 -151 0 -58 -7 -65 -65 -65 l-53 0 -22 98 c-31
136 -61 216 -140 377 -103 210 -105 218 -105 435 0 157 3 192 18 230 11 25 24
48 30 52 20 13 131 9 159 -6 25 -13 26 -13 32 18 3 17 11 85 17 151 l12 120
-37 75 c-21 41 -46 83 -57 93 -10 10 -19 22 -19 27 0 5 -9 14 -20 20 -17 9
-23 5 -43 -27z m555 -1520 c49 -58 68 -189 68 -461 0 -243 -15 -372 -52 -444
l-18 -38 -75 0 -75 0 -19 38 c-39 76 -54 200 -54 437 0 280 28 443 80 474 31
18 128 13 145 -6z"/>
<path d="M3725 5858 c-3 -13 -4 -653 -3 -1423 3 -1361 4 -1400 22 -1403 10 -2
22 2 27 10 5 7 9 280 9 606 l0 592 55 0 c30 0 55 -3 55 -7 0 -22 239 -1183
245 -1194 4 -5 26 -9 51 -9 39 0 45 3 40 18 -5 18 -80 377 -166 797 -28 132
-68 327 -90 434 -22 106 -40 221 -40 256 0 39 46 292 125 691 69 346 125 635
125 642 0 7 -12 12 -29 12 -24 0 -31 -6 -40 -32 -9 -29 -61 -292 -192 -965
l-32 -163 -53 0 -54 0 0 564 c0 310 -3 571 -6 580 -9 24 -43 20 -49 -6z"/>
<path d="M6208 5804 c-30 -49 -35 -351 -8 -439 l13 -40 9 30 c20 72 29 222 19
317 -11 99 -24 148 -33 132z"/>
<path d="M5156 5425 c-3 -9 -6 -155 -6 -325 0 -170 -3 -315 -6 -324 -5 -13
-23 -16 -94 -16 -80 0 -89 2 -103 23 l-15 22 -29 -28 c-77 -73 -128 -381 -104
-627 16 -161 58 -293 139 -430 25 -42 27 -54 30 -180 3 -172 -1 -184 -80 -188
-32 -2 -67 2 -78 8 -19 10 -20 8 -20 -30 l0 -40 -60 0 -60 0 0 735 c0 714 -1
735 -19 735 -23 0 -31 -19 -31 -76 l0 -44 -55 0 c-44 0 -57 4 -61 18 -13 40
-36 89 -54 112 l-18 24 -21 -24 c-66 -81 -123 -400 -138 -765 -15 -390 55
-878 140 -972 l20 -22 18 23 c10 13 28 53 40 90 l22 67 56 -3 56 -3 5 -75 c4
-58 8 -75 20 -75 11 0 16 15 20 55 l5 55 55 3 55 3 19 -46 c10 -25 32 -60 49
-78 l30 -33 33 32 c133 134 151 742 29 987 -15 29 -35 61 -45 72 -47 52 -65
106 -68 215 -3 80 0 115 11 143 l16 37 68 0 c66 0 69 -1 96 -35 15 -19 36 -35
46 -35 11 0 21 -6 24 -14 3 -8 16 -16 29 -18 l23 -3 6 -495 c7 -507 14 -617
49 -755 23 -90 44 -122 66 -100 29 28 35 67 28 181 l-7 114 54 0 54 0 19 -85
c10 -47 30 -109 43 -137 23 -50 75 -107 99 -108 14 0 69 59 88 97 28 56 55
175 72 313 12 104 17 272 21 722 3 323 3 598 -1 612 -4 17 -13 26 -26 26 -20
0 -20 -8 -20 -472 -1 -485 -11 -754 -31 -817 -20 -62 -34 -71 -109 -71 -79 0
-86 6 -108 88 -12 47 -16 161 -19 642 -2 322 -6 595 -8 607 -5 21 -11 22 -108
25 l-102 3 -5 335 c-4 298 -7 335 -21 338 -9 2 -19 -4 -23 -13z m-610 -1053
c20 -13 41 -65 60 -152 15 -70 18 -127 18 -320 0 -250 -14 -361 -55 -442 l-19
-38 -75 0 -74 0 -21 47 c-36 82 -50 199 -50 428 0 149 5 239 16 306 16 94 43
163 66 172 20 8 122 8 134 -1z m822 -436 c3 -510 7 -486 -83 -486 -46 0 -56 3
-67 23 -10 17 -14 124 -16 451 -2 236 -1 435 2 443 4 11 24 13 83 11 l78 -3 3
-439z"/>
<path d="M6061 4739 c-11 -24 -28 -77 -37 -116 l-18 -73 -53 0 -53 0 0 93 c0
98 -8 124 -34 114 -14 -6 -16 -87 -16 -862 0 -762 2 -856 15 -862 9 -3 19 -2
23 2 4 3 10 271 13 593 5 496 8 595 22 640 26 88 39 102 97 102 28 0 50 5 50
10 0 8 106 15 112 8 1 -2 5 -307 8 -678 4 -591 7 -675 20 -675 13 0 15 104 18
863 l2 862 -63 0 c-35 0 -68 5 -75 12 -9 9 -16 1 -31 -33z"/>
<path d="M6535 3559 c-26 -117 -26 -324 0 -439 l19 -85 13 44 c7 25 18 93 25
153 12 116 1 278 -25 367 l-14 44 -18 -84z"/>
</g>
</svg>
