<?xml version="1.0" standalone="no"?>
<!DOCTYPE svg PUBLIC "-//W3C//DTD SVG 20010904//EN"
 "http://www.w3.org/TR/2001/REC-SVG-20010904/DTD/svg10.dtd">
<svg version="1.0" xmlns="http://www.w3.org/2000/svg"
 width="3200.000000pt" height="1194.000000pt" viewBox="0 0 3200.000000 1194.000000"
 preserveAspectRatio="xMidYMid meet">

<g transform="translate(0.000000,1194.000000) scale(0.100000,-0.100000)"
fill="#000000" stroke="none">
<path d="M0 5970 l0 -5970 16000 0 16000 0 0 5970 0 5970 -16000 0 -16000 0 0
-5970z m28938 3987 c170 -68 273 -222 274 -407 0 -134 -49 -239 -157 -339 -91
-84 -234 -122 -357 -96 -140 29 -242 99 -303 209 -79 143 -86 280 -21 412 61
123 152 198 284 235 90 25 197 20 280 -14z m-10555 -1020 c9 -13 27 -51 41
-85 41 -96 260 -561 348 -737 44 -88 91 -187 103 -220 13 -33 67 -146 119
-251 52 -105 109 -226 126 -270 17 -43 51 -121 76 -172 24 -51 44 -97 44 -103
0 -15 101 -230 129 -274 14 -22 31 -51 37 -65 6 -14 21 -45 32 -70 11 -25 26
-61 33 -80 6 -19 43 -98 80 -175 37 -77 91 -196 119 -265 29 -69 69 -156 90
-195 20 -38 51 -104 68 -145 70 -172 91 -218 125 -285 20 -38 43 -81 51 -95
19 -32 73 -150 138 -299 55 -128 71 -164 148 -326 28 -60 55 -112 59 -115 4
-3 26 -54 50 -115 24 -60 86 -192 137 -293 51 -101 96 -200 100 -220 6 -36 96
-233 138 -302 22 -36 83 -169 160 -350 24 -58 81 -178 125 -268 45 -89 81
-167 81 -172 0 -5 13 -38 29 -72 16 -35 56 -124 89 -198 33 -74 79 -178 102
-230 79 -179 223 -495 323 -710 54 -118 101 -225 104 -237 l5 -23 -619 0 -619
0 -32 68 c-17 37 -57 126 -88 197 -82 187 -252 564 -274 607 -10 20 -16 39
-13 42 4 3 2 6 -4 6 -5 0 -16 19 -23 43 -8 23 -22 54 -32 69 -11 15 -20 37
-21 48 -1 11 -5 20 -9 20 -4 0 -8 4 -8 10 0 5 -22 55 -50 112 -27 56 -48 104
-45 106 3 3 -11 34 -30 69 -19 36 -35 73 -35 84 0 10 -4 19 -10 19 -5 0 -10 5
-10 12 0 7 -17 48 -39 93 -21 44 -46 97 -56 117 -9 21 -22 35 -28 31 -5 -3 -7
-2 -4 4 3 5 -1 22 -9 38 -8 16 -17 45 -19 65 -6 44 -23 84 -149 343 -53 109
-102 216 -109 238 -6 21 -15 39 -19 39 -5 0 -8 7 -8 15 0 8 -4 23 -8 33 -5 9
-23 46 -40 82 -18 36 -32 69 -32 74 0 4 -39 88 -86 185 -48 97 -97 201 -111
231 -41 91 -100 222 -123 273 -12 27 -22 58 -23 68 -1 10 -5 19 -10 19 -4 0
-6 3 -3 8 5 8 -43 108 -91 188 -17 28 -41 73 -52 100 -28 61 -58 94 -88 94
-13 0 -23 5 -23 12 0 6 -3 9 -6 5 -4 -3 -28 14 -54 39 -42 40 -145 100 -190
111 -57 14 -172 19 -190 8 -6 -3 -10 0 -10 7 0 11 -2 11 -9 0 -4 -7 -24 -14
-43 -15 -20 -1 -34 -5 -31 -9 2 -5 -5 -8 -17 -8 -11 0 -28 -4 -38 -9 -9 -5
-47 -24 -84 -42 -37 -18 -65 -37 -61 -42 3 -6 2 -7 -4 -4 -6 4 -19 0 -29 -8
-22 -16 -38 -20 -29 -6 3 5 0 13 -6 17 -7 4 -7 9 -1 13 5 3 6 14 3 25 -5 14
-27 -21 -83 -135 -147 -299 -246 -505 -278 -579 -18 -41 -50 -112 -71 -158
-22 -45 -39 -85 -39 -89 0 -4 -23 -57 -51 -118 -136 -296 -173 -379 -189 -430
-7 -22 -21 -56 -31 -75 -10 -19 -36 -75 -58 -125 -21 -49 -67 -148 -101 -220
-53 -110 -122 -260 -187 -405 -9 -19 -35 -77 -59 -128 -24 -51 -44 -95 -44
-97 0 -21 -146 -339 -256 -558 -14 -26 -36 -78 -50 -115 -15 -37 -34 -87 -44
-112 -10 -25 -64 -142 -121 -260 -57 -119 -117 -244 -133 -278 l-29 -62 -618
0 c-341 0 -619 2 -619 4 0 4 62 147 115 266 18 41 61 138 95 215 34 77 90 201
125 275 93 197 179 387 206 450 12 30 42 93 67 140 37 73 86 181 160 355 9 22
52 112 95 200 44 88 92 192 107 230 15 39 39 93 53 120 13 28 48 106 77 175
28 69 58 136 66 150 8 14 35 68 60 120 25 52 68 139 95 192 27 54 49 106 49
116 0 10 9 28 20 40 11 12 20 28 20 37 0 8 5 15 10 15 6 0 10 8 10 18 0 10 23
70 51 132 28 63 62 142 77 175 14 33 31 67 37 75 24 32 195 398 210 450 4 14
23 54 41 90 19 35 34 68 34 73 0 7 213 449 240 499 6 10 10 24 10 32 0 8 18
54 40 103 23 48 45 97 50 108 5 11 40 86 78 166 39 80 94 202 123 270 29 68
66 148 81 178 15 29 28 59 28 66 0 7 4 15 8 17 7 3 30 47 87 173 49 108 96
208 150 320 30 61 62 135 71 165 10 30 42 102 72 160 119 229 153 298 179 364
14 39 48 114 75 168 26 54 48 101 48 105 0 12 194 399 208 416 21 24 57 21 75
-6z m-11928 -18 c160 -17 343 -60 574 -133 124 -39 205 -78 339 -160 48 -29
101 -61 119 -70 48 -24 165 -126 293 -255 134 -135 246 -295 340 -485 87 -174
86 -171 3 -242 -37 -33 -120 -93 -183 -135 -63 -41 -135 -88 -159 -104 -24
-17 -51 -34 -60 -40 -98 -60 -191 -122 -211 -141 -14 -12 -55 -42 -91 -67
l-67 -45 -32 61 c-18 34 -56 94 -86 132 -58 76 -259 287 -266 280 -3 -3 -15 6
-28 20 -13 14 -28 25 -33 25 -6 0 -18 6 -26 14 -25 22 -221 120 -271 136 -25
7 -49 17 -54 22 -6 4 -20 8 -33 8 -13 0 -23 4 -23 8 0 5 -15 6 -32 3 l-33 -5
34 -6 c60 -9 47 -27 -16 -23 -32 2 -77 4 -100 5 -24 1 -43 4 -43 7 0 5 -83 12
-155 13 -55 1 -235 -13 -267 -21 -20 -5 -39 -6 -42 -3 -4 3 -6 0 -6 -6 0 -7
-3 -11 -7 -10 -5 1 -25 -6 -47 -15 -21 -9 -43 -14 -49 -10 -6 3 -7 1 -3 -5 5
-8 -2 -12 -19 -12 -17 0 -24 -4 -19 -12 4 -6 3 -8 -2 -5 -6 3 -39 -10 -74 -28
-36 -19 -80 -41 -98 -49 -17 -8 -71 -53 -119 -100 -47 -48 -89 -86 -92 -86
-21 0 -139 -234 -157 -313 -24 -102 -33 -204 -19 -226 6 -10 4 -12 -6 -6 -12
8 -12 6 0 -8 7 -9 11 -17 8 -17 -3 0 -1 -17 4 -37 5 -21 12 -49 14 -63 15 -81
48 -165 78 -197 11 -13 17 -23 13 -23 -4 0 13 -27 38 -59 25 -33 46 -64 46
-69 0 -5 7 -16 16 -23 13 -11 34 -50 36 -69 1 -10 54 -52 88 -70 19 -10 44
-27 56 -38 21 -20 144 -82 163 -82 6 0 28 -11 49 -24 20 -14 69 -37 107 -51
39 -15 88 -36 110 -48 73 -38 89 -46 215 -100 69 -30 151 -62 182 -71 32 -9
100 -36 151 -60 52 -24 112 -49 133 -56 21 -7 44 -17 50 -21 6 -5 76 -42 155
-83 79 -40 169 -86 199 -102 31 -16 75 -37 98 -46 40 -17 347 -212 532 -338
82 -56 372 -323 418 -385 12 -16 40 -52 62 -80 45 -57 169 -278 225 -403 54
-121 122 -415 132 -568 8 -121 -1 -285 -27 -469 -23 -171 -117 -434 -221 -619
-28 -50 -64 -115 -81 -145 -16 -30 -51 -77 -78 -105 -52 -54 -64 -68 -123
-139 -47 -57 -245 -234 -318 -285 -77 -54 -118 -77 -259 -150 -306 -159 -331
-167 -750 -272 -19 -4 -60 -11 -90 -15 -30 -4 -107 -16 -170 -28 -101 -18
-156 -21 -445 -21 -336 -1 -523 11 -635 41 -30 8 -91 18 -136 22 -44 4 -95 15
-112 24 -17 8 -73 25 -124 37 -51 12 -101 26 -110 31 -10 5 -24 9 -32 9 -24 0
-212 79 -266 111 -15 9 -86 44 -205 100 -111 52 -252 153 -376 269 -199 186
-290 281 -338 354 -67 99 -72 107 -114 163 -46 63 -121 219 -113 238 3 8 53
46 113 86 59 40 128 92 153 115 25 23 61 50 80 60 19 11 82 53 140 95 261 188
393 279 406 279 7 0 25 -21 41 -47 69 -121 206 -278 323 -372 25 -19 63 -51
84 -70 22 -19 85 -56 140 -83 56 -26 129 -66 164 -87 35 -22 89 -47 120 -56
31 -9 80 -28 107 -41 28 -13 73 -26 100 -30 28 -3 67 -12 88 -20 20 -8 37 -11
37 -9 0 3 10 1 21 -6 12 -6 70 -11 135 -11 63 -1 114 -5 114 -9 0 -5 10 -9 23
-9 12 0 74 0 137 0 115 0 123 1 170 14 14 4 44 9 65 10 22 2 47 6 55 9 8 2 42
9 75 15 76 13 89 16 95 22 11 11 81 40 98 41 35 1 127 37 124 49 -1 6 2 9 8 5
5 -3 10 -1 10 4 0 6 4 10 8 8 17 -5 112 55 173 110 35 31 89 88 119 127 30 39
59 74 65 78 5 4 7 8 3 8 -4 0 4 12 18 27 13 15 31 38 38 52 33 62 70 137 72
146 1 6 7 28 13 51 6 22 13 92 15 156 4 120 -7 196 -38 253 -9 17 -16 35 -16
41 0 7 -13 39 -30 72 -16 34 -30 65 -30 69 0 5 -13 30 -30 56 -16 26 -30 54
-30 62 0 8 -4 15 -10 15 -5 0 -10 5 -10 11 0 5 5 7 10 4 6 -3 10 4 10 18 0 20
-4 23 -23 20 -17 -3 -23 0 -24 14 -5 63 -16 76 -123 147 -94 62 -431 266 -498
301 -31 16 -60 33 -63 38 -3 5 -12 9 -20 11 -8 1 -36 13 -64 26 -27 13 -56 25
-64 26 -8 2 -17 6 -20 11 -3 4 -31 19 -61 32 -30 13 -86 38 -125 56 -176 80
-308 136 -340 142 -11 2 -21 8 -23 13 -2 6 -12 10 -23 10 -31 0 -511 227 -529
250 -3 4 -21 13 -40 21 -61 25 -204 101 -245 131 -22 16 -72 53 -111 81 -40
29 -82 59 -94 67 -114 77 -176 135 -365 335 -95 102 -189 253 -236 381 -12 33
-26 65 -32 72 -5 6 -6 12 -3 12 4 0 1 10 -5 22 -10 19 -30 86 -55 183 -30 119
-36 201 -31 455 4 259 4 268 35 385 83 314 230 617 372 763 163 168 347 336
402 367 10 6 75 44 145 86 111 66 215 120 368 190 22 10 60 23 85 29 25 7 72
20 105 31 169 53 442 100 655 113 101 5 434 -4 545 -15z m4145 -124 c4 -2 10
-305 14 -672 8 -885 15 -1220 25 -1265 5 -20 7 -39 4 -41 -2 -2 9 -7 24 -10
20 -4 29 -12 30 -28 1 -12 7 -25 14 -29 6 -4 8 -13 5 -19 -4 -6 -2 -11 3 -11
6 0 11 -9 11 -20 0 -11 5 -20 11 -20 6 0 9 -7 5 -15 -3 -8 0 -14 7 -12 7 1 12
-2 11 -8 -1 -5 7 -18 17 -27 11 -10 19 -16 19 -13 0 2 20 -15 43 -38 57 -55
85 -77 98 -77 6 0 23 -8 37 -19 28 -19 33 -20 97 -25 42 -2 106 8 140 23 11 5
38 17 60 26 22 9 54 23 70 30 17 8 31 10 33 5 2 -6 8 -10 13 -10 6 0 7 5 3 12
-4 7 -3 8 4 4 14 -8 6 -50 -14 -83 -24 -39 -1 -25 33 20 18 23 87 116 154 207
67 91 142 192 166 225 24 33 63 88 86 122 80 119 122 178 134 191 7 7 19 27
28 45 8 18 49 77 91 132 42 55 97 132 124 170 51 76 168 235 362 493 125 166
141 189 263 367 81 119 113 162 177 235 27 30 58 74 69 97 17 34 26 43 47 44
144 3 1305 -1 1309 -5 3 -3 -32 -56 -78 -118 -46 -63 -113 -156 -149 -207 -36
-52 -91 -129 -122 -171 -31 -43 -64 -92 -73 -110 -9 -18 -45 -71 -80 -118 -36
-48 -80 -109 -100 -137 -19 -27 -57 -79 -83 -115 -26 -36 -80 -112 -120 -170
-90 -130 -252 -353 -289 -399 -15 -19 -41 -53 -58 -77 -16 -23 -62 -84 -100
-135 -39 -52 -92 -125 -118 -164 -58 -86 -91 -133 -181 -255 -39 -52 -79 -106
-88 -120 -26 -38 -206 -284 -259 -355 -16 -22 -49 -69 -74 -105 -24 -36 -71
-103 -104 -150 -161 -229 -234 -345 -203 -326 16 10 32 -12 33 -45 1 -19 -4
-63 -9 -100 -10 -66 -9 -313 1 -359 3 -14 8 -38 11 -55 3 -16 9 -46 13 -65 5
-19 7 -43 5 -53 -4 -17 -5 -17 -30 -1 -20 13 -24 14 -15 2 7 -8 10 -18 6 -21
-3 -4 -1 -7 6 -7 7 0 9 -4 6 -10 -3 -5 -2 -10 3 -10 5 0 31 -32 57 -71 26 -38
57 -80 69 -92 12 -12 44 -56 71 -97 66 -101 165 -231 193 -253 12 -10 30 -33
38 -50 20 -39 119 -170 194 -257 48 -55 157 -197 370 -483 25 -33 72 -94 106
-136 33 -42 98 -125 144 -186 47 -60 112 -144 145 -186 33 -42 96 -127 140
-189 71 -100 208 -277 225 -290 3 -3 57 -75 119 -160 61 -85 144 -195 182
-245 61 -78 168 -226 221 -305 17 -25 155 -203 216 -279 l34 -41 -709 0 -709
0 -59 81 c-33 44 -67 91 -75 104 -8 13 -40 52 -71 87 -85 96 -143 170 -201
256 -28 42 -79 109 -112 147 -34 39 -81 99 -106 133 -126 176 -402 537 -430
562 -9 8 -94 122 -112 150 -13 21 -57 77 -156 195 -10 11 -44 58 -76 105 -33
47 -116 153 -185 235 -70 83 -140 170 -156 195 -27 41 -47 65 -102 125 -22 25
-43 30 -43 11 0 -15 -40 -13 -64 2 -6 3 -17 7 -26 8 -29 5 -45 10 -59 18 -11
7 -12 6 -6 -5 7 -11 6 -12 -7 -2 -8 7 -39 16 -69 19 -30 3 -56 6 -59 7 -4 1
-45 -6 -114 -19 -11 -2 -23 -9 -27 -15 -4 -6 -12 -8 -18 -5 -6 4 -11 3 -11 -1
0 -5 -11 -15 -24 -23 -62 -38 -149 -134 -167 -185 -8 -20 -22 -41 -32 -47 -10
-5 -16 -16 -13 -24 3 -8 0 -13 -7 -11 -7 1 -11 -6 -9 -15 1 -9 -3 -20 -9 -24
-8 -4 -9 -3 -5 4 5 8 0 12 -13 12 -16 0 -21 -9 -26 -57 -4 -32 -8 -69 -10 -83
-2 -14 -7 -456 -11 -983 l-7 -957 -571 2 -571 3 0 3635 0 3635 260 6 c275 6
861 3 875 -6z m10833 5 c8 0 130 -250 157 -320 14 -39 149 -346 185 -425 13
-27 45 -95 70 -150 80 -171 172 -379 180 -405 4 -14 25 -65 47 -115 22 -49 46
-103 54 -120 7 -16 38 -86 69 -154 30 -68 85 -194 121 -279 36 -86 74 -174 84
-196 69 -153 151 -328 200 -426 32 -63 72 -158 90 -210 18 -52 81 -196 140
-320 60 -124 116 -247 125 -274 23 -72 55 -146 82 -188 13 -21 23 -43 23 -49
0 -21 131 -279 141 -279 6 0 19 5 30 10 13 8 19 7 19 0 0 -6 5 -8 10 -5 6 3
10 1 10 -5 0 -6 8 -10 18 -8 10 2 16 -2 14 -10 -1 -8 3 -12 10 -9 7 2 24 -3
38 -12 47 -31 135 -64 175 -65 11 -1 25 -4 30 -7 16 -9 107 -2 140 11 17 6 31
11 33 10 1 0 28 7 60 17 31 9 60 16 65 15 4 -1 7 2 7 7 0 5 10 11 23 15 12 3
40 21 61 41 21 19 42 35 47 35 5 0 9 5 9 11 0 5 5 7 10 4 6 -4 8 -10 5 -15 -7
-12 20 -6 36 7 14 12 68 113 87 163 5 14 14 36 20 50 5 14 20 52 33 85 12 33
64 141 114 240 51 99 109 223 130 275 20 52 41 104 46 115 5 11 18 48 29 83
12 35 43 108 70 162 28 54 50 101 50 104 0 3 11 29 23 58 13 29 30 69 37 88 7
19 29 67 48 105 33 66 77 167 162 370 35 84 52 120 146 308 21 39 58 126 85
192 128 323 161 402 176 430 75 141 125 243 151 312 18 46 43 107 57 137 14
30 25 58 25 63 0 5 11 24 24 43 13 19 27 46 31 60 14 49 109 260 178 400 l13
25 601 0 c389 0 605 -4 611 -10 10 -10 -86 -237 -208 -495 -62 -131 -112 -248
-135 -315 -20 -61 -72 -181 -88 -207 -20 -30 -144 -297 -197 -423 -23 -55 -61
-140 -85 -190 -24 -49 -62 -133 -85 -185 -23 -52 -46 -100 -51 -106 -4 -5 -42
-89 -83 -185 -87 -205 -117 -272 -206 -464 -15 -33 -33 -77 -40 -97 -6 -20
-20 -48 -31 -62 -10 -13 -39 -78 -64 -143 -51 -133 -51 -133 -169 -375 -47
-98 -86 -179 -86 -182 0 -3 -20 -49 -45 -102 -25 -53 -45 -98 -45 -100 0 -2
-16 -39 -36 -81 -20 -43 -43 -96 -51 -118 -9 -22 -56 -128 -105 -235 -121
-263 -117 -254 -134 -302 -8 -24 -39 -88 -68 -143 -68 -128 -246 -509 -246
-526 0 -21 -88 -240 -104 -258 -28 -34 -316 -655 -338 -731 -6 -19 -42 -100
-82 -180 -73 -149 -92 -190 -203 -439 -60 -135 -89 -198 -183 -396 -21 -44
-68 -147 -106 -229 -107 -232 -120 -231 -219 4 -24 57 -57 125 -144 295 -22
44 -41 86 -41 93 0 7 -16 46 -35 86 -19 41 -35 79 -35 85 0 6 -4 11 -10 11 -5
0 -10 8 -10 19 0 10 -7 24 -15 31 -8 7 -15 16 -15 20 0 5 -16 43 -35 84 -19
42 -35 79 -35 83 0 19 -106 241 -112 237 -5 -3 -8 3 -8 12 0 17 -67 164 -129
284 -16 30 -47 102 -70 160 -23 58 -46 113 -52 122 -5 10 -9 25 -9 33 0 8 -4
15 -8 15 -5 0 -9 6 -9 13 0 6 -13 39 -29 72 -15 33 -28 62 -28 65 -1 3 -36 75
-78 160 -99 200 -188 401 -188 424 0 10 -13 44 -29 75 -16 31 -54 108 -85 171
-31 63 -74 148 -95 189 -37 69 -74 170 -74 198 0 7 -4 13 -9 13 -4 0 -8 4 -8
9 0 5 -15 42 -34 82 -19 40 -32 77 -29 83 3 5 1 6 -5 2 -11 -6 -15 5 -11 30 0
4 -3 10 -8 13 -8 6 -123 235 -123 246 0 26 -156 356 -172 363 -5 2 -8 15 -8
28 0 14 -31 91 -69 172 -38 81 -89 193 -115 249 -25 56 -57 118 -71 139 -14
20 -25 49 -25 63 0 14 -7 39 -15 55 -8 15 -15 35 -15 42 0 8 -4 14 -10 14 -5
0 -10 10 -10 23 0 13 -23 63 -52 112 -44 78 -74 138 -108 220 -5 11 -29 67
-55 125 -26 58 -58 136 -71 174 -14 38 -39 99 -56 135 -17 36 -32 72 -34 79
-1 7 -22 46 -46 85 -40 68 -60 105 -78 152 -4 11 -22 53 -39 93 -17 40 -31 77
-31 82 0 6 -16 43 -35 83 -19 39 -35 77 -35 83 0 6 -24 63 -53 125 -30 63 -66
146 -82 184 -15 39 -61 144 -102 235 -41 91 -93 208 -115 260 -22 52 -69 155
-104 228 -35 73 -64 137 -64 142 0 11 321 16 840 13 195 -1 359 -2 363 -3z"/>
<path d="M28723 9879 c-113 -14 -224 -100 -261 -201 -35 -95 -37 -142 -8 -234
18 -58 37 -94 65 -126 84 -95 251 -134 376 -88 89 33 166 115 194 205 33 104
28 177 -14 263 -70 139 -191 201 -352 181z m186 -143 c36 -35 55 -87 46 -124
-3 -15 -19 -44 -36 -64 -16 -20 -29 -43 -29 -50 0 -7 14 -33 30 -57 34 -50 39
-95 12 -110 -33 -18 -61 0 -118 76 -50 67 -87 97 -105 87 -3 -2 -9 -33 -12
-70 -3 -48 -10 -72 -25 -87 -19 -19 -22 -19 -45 -4 -23 15 -26 25 -32 111 -11
142 -3 305 15 317 8 5 71 8 142 7 125 -3 127 -3 157 -32z"/>
<path d="M28713 9663 c-7 -2 -13 -18 -13 -34 l0 -30 68 3 c64 3 67 4 70 29 3
24 -1 27 -44 33 -52 7 -63 7 -81 -1z"/>
<path d="M10640 6795 c0 -7 30 -13 34 -7 3 4 -4 9 -15 9 -10 1 -19 0 -19 -2z"/>
</g>
</svg>
